# xmcd
#
# Track frame offsets:
#	150
#	12135
#	28475
#	39098
#	53348
#	66965
#	77251
#	88685
#	104057
#	115836
#	125243
#	135598
#
# Disc length: 1967 seconds
#
# Revision: 0
# Processed by: cddbd v1.5.2PL0 Copyright (c) Steve Scherf et al.
# Submitted via: EasyCDDAExtractor 9.1.2.1
#
DISCID=9807ad0c
DTITLE=Jimmy Lawton - I'm Country
DYEAR=1900
DGENRE=Country
TTITLE0=Fire And Blisters
TTITLE1=Help Me Make It Through The Night
TTITLE2=Rosey Bokay
TTITLE3=I'm Country
TTITLE4=Now Maybe Forever
TTITLE5=Banjo Man
TTITLE6=The Still Waters Of Your Love
TTITLE7=Distant Drums
TTITLE8=L'amour Toujours
TTITLE9=Jambalaya
TTITLE10=Send Me The Pillow
TTITLE11=The Last Song
EXTD=
EXTT0=
EXTT1=
EXTT2=
EXTT3=
EXTT4=
EXTT5=
EXTT6=
EXTT7=
EXTT8=
EXTT9=
EXTT10=
EXTT11=
PLAYORDER=
